<?xml version="1.0" ?><svg id="solid" viewBox="0 0 512 512" xmlns="http://www.w3.org/2000/svg"><title/><path d="M448,296a8,8,0,0,0,8-8V72a8,8,0,0,0-8-8H64a8,8,0,0,0-8,8V288a8,8,0,0,0,8,8Zm-40-88H288a8,8,0,0,1,0-16H408a8,8,0,0,1,0,16Zm8,32a8,8,0,0,1-8,8H288a8,8,0,0,1,0-16H408A8,8,0,0,1,416,240Zm-8-72H288a8,8,0,0,1,0-16H408a8,8,0,0,1,0,16Zm0-40H288a8,8,0,0,1,0-16H408a8,8,0,0,1,0,16Zm-152-8V240a8,8,0,0,1-8,8H104a8,8,0,0,1-8-8V120a8,8,0,0,1,8-8H248A8,8,0,0,1,256,120ZM488,32h0a16,16,0,0,1-16,16H40A16,16,0,0,1,24,32h0A16,16,0,0,1,40,16H472A16,16,0,0,1,488,32Zm0,296h0a16,16,0,0,1-16,16H267L397.816,482.507a8,8,0,1,1-11.632,10.986L264,364.122V488a8,8,0,0,1-16,0V364.122L125.816,493.493a8,8,0,0,1-11.632-10.986L245,344H40a16,16,0,0,1-16-16h0a16,16,0,0,1,16-16H472A16,16,0,0,1,488,328Z" fill="#FFFFFF"/></svg>